<svg width="35" height="35" viewBox="0 0 35 35" fill="none" xmlns="http://www.w3.org/2000/svg">
<g clip-path="url(#clip0_832_3417)">
<circle cx="17.5" cy="17.5" r="17.5" fill="#F8F8F8"/>
<path d="M18 9.16797C18 8.89183 17.7761 8.66797 17.5 8.66797C17.2239 8.66797 17 8.89183 17 9.16797H18ZM17 25.8346C17 26.1108 17.2239 26.3346 17.5 26.3346C17.7761 26.3346 18 26.1108 18 25.8346H17ZM17 9.16797V25.8346H18V9.16797H17Z" fill="#1D1D1D"/>
<path d="M17.8523 9.52152C18.0475 9.32626 18.0475 9.00968 17.8523 8.81442C17.657 8.61915 17.3404 8.61915 17.1451 8.81442L17.8523 9.52152ZM9.85348 16.1061C9.65822 16.3013 9.65822 16.6179 9.85348 16.8132C10.0487 17.0085 10.3653 17.0085 10.5606 16.8132L9.85348 16.1061ZM17.1451 8.81442L9.85348 16.1061L10.5606 16.8132L17.8523 9.52152L17.1451 8.81442Z" fill="#1D1D1D"/>
<path d="M17.1438 9.52152C16.9486 9.32626 16.9486 9.00968 17.1438 8.81442C17.3391 8.61915 17.6557 8.61915 17.8509 8.81442L17.1438 9.52152ZM25.1426 16.1061C25.3379 16.3013 25.3379 16.6179 25.1426 16.8132C24.9474 17.0085 24.6308 17.0085 24.4355 16.8132L25.1426 16.1061ZM17.8509 8.81442L25.1426 16.1061L24.4355 16.8132L17.1438 9.52152L17.8509 8.81442Z" fill="#1D1D1D"/>
</g>
<defs>
<clipPath id="clip0_832_3417">
<rect width="35" height="35" fill="white"/>
</clipPath>
</defs>
</svg>
