<svg version="1.1" id="Layer_1" xmlns="http://www.w3.org/2000/svg" x="0" y="0" viewBox="0 0 1189.1 390.1" style="enable-background:new 0 0 1189.1 390.1" xml:space="preserve">
    <g style='fill:none;stroke:#2a4dff;stroke-width:4;'>
      <path class="st0" d="M1137.6 157.1c-12.7 0-18.9-11.1-18.9-25.9s6.2-25.9 18.9-25.9 18.9 11.1 18.9 25.9-6.2 25.9-18.9 25.9m0-64.7c-22 0-33.1 17.5-33.1 38.8s11.1 38.8 33.1 38.8 33.1-17.5 33.1-38.8-11.1-38.8-33.1-38.8m-94.7-7c-12.7 0-18.9-11.1-18.9-25.9s6.2-25.9 18.9-25.9 18.9 11.1 18.9 25.9-6.2 25.9-18.9 25.9m0-64.7c-22 0-33.1 17.5-33.1 38.8 0 21.4 11.1 38.8 33.1 38.8s33.1-17.5 33.1-38.8c0-21.3-11.1-38.8-33.1-38.8m11.9 146.7 86.9-143.8h-15.6L1039 167.4h15.8z"/>
      <path class="st1" d="M469.8 153.8h262.5M513.6 263v-.3c0-48.6 39.4-88 88-88s88 39.4 88 88v.3c0 48.6-39.4 88-88 88s-88-39.4-88-88zm-43.3 109.2h261.6V109.7H470.3v262.5zm68.8-47.9 123-123m-123 0 123 123m25.5-192.4h-86"/>
      <path class="st2" d="m89.2 214.4-14.5-27.8h-.5v-13.9h-42v13.9h.1l-14.2 28v125.1l86.1-.3-15-85z"/>
      <path class="st1" d="m89.2 214.4-14.5-27.8h-.5v-13.9h-42v13.9h.1l-14.2 28v125.1l86.1-.3-15-85zm-56.4-27.8h41.6"/>
      <path class="st2" d="M104 186.3v45m28-29.2s-13.7 0-20.6 7c-6.9 7-6.9 21.1-6.9 21.1s13.7 0 20.6-7c6.9-7.1 6.9-21.1 6.9-21.1m-99.2-15.6h42"/>
      <path class="st1" d="M104 186.3v45m28-29.2s-13.7 0-20.6 7c-6.9 7-6.9 21.1-6.9 21.1s13.7 0 20.6-7c6.9-7.1 6.9-21.1 6.9-21.1zm-99.2-15.6h42"/>
      <path class="st2" d="M159 284.4c0 30.4-25 55-55.8 55-30.8 0-55.8-24.6-55.8-55s25-55 55.8-55c30.8 0 55.8 24.6 55.8 55"/>
      <path class="st1" d="M159 284.4c0 30.4-25 55-55.8 55-30.8 0-55.8-24.6-55.8-55s25-55 55.8-55c30.8 0 55.8 24.6 55.8 55"/>
      <path class="st2" d="M103.9 229.7s0 13.7 6.9 20.6c6.9 6.9 20.7 6.9 20.7 6.9s0-13.7-6.9-20.6c-6.9-6.9-20.7-6.9-20.7-6.9m55.3 54.7c0 30.5-25.1 55.2-56 55.2s-56-24.7-56-55.2c0-30.5 25.1-55.2 56-55.2s56 24.7 56 55.2"/>
      <path class="st1" d="M103.9 229.7s0 13.7 6.9 20.6c6.9 6.9 20.7 6.9 20.7 6.9s0-13.7-6.9-20.6c-6.9-6.9-20.7-6.9-20.7-6.9zm55.3 54.7c0 30.5-25.1 55.2-56 55.2s-56-24.7-56-55.2c0-30.5 25.1-55.2 56-55.2s56 24.7 56 55.2z"/>
      <path class="st2" d="M289.2 133.5h24.1v24.7h-24.1z"/>
      <path class="st3" d="M289.2 133.5h24.1v24.7h-24.1z"/>
      <path class="st2" d="M193.2 133.5h23.6v24.7h-23.6z"/>
      <path class="st3" d="M193.2 133.5h23.6v24.7h-23.6z"/>
      <path class="st1" d="M191.9 73.1h-11.8m11.8.2h-11.8m145.1-.2H191.9"/>
      <path class="st2" d="M204.7 13.8h96.5l12.1 59.4v59.3H193.2V73.2l11.5-59.4zm120.5 59.3H192.9"/>
      <path class="st1" d="M204.7 13.8h96.5l12.1 59.4v59.3H193.2V73.2l11.5-59.4zm120.5 59.3H192.9m775.5 212.7v86.9m55.1-86.9v86.9m-201.9 0h350.5m-350-86.9h347.1V22.4H822.1v263.4zm-510.6 5.7v53.8m-27.1-26.9h54.2m26.9 54H254.7V264.8h110.9v107.6zm0 0H254.7V264.8h110.9v107.6zm-12.9-120.8v13.3m-84.5 0v-13.3m-13.4-.2h110.9v-38H254.7v38zm0 0h110.9v-38H254.7v38z"/>
      <path class="st0" d="M951.5 135.6c-22.7 0-36.8 15.3-38.5 35.1h14.3c1.3-14.7 11.4-22.5 24.4-22.5 12.9 0 23.4 8.1 24.8 22.5h14.9c-5.1-25.3-20.3-35.1-39.9-35.1zm-83.9-7.7c-13.8 0-22.8 6.3-26.8 11.2h-3.3c.8-24.9 11.4-40.5 29.4-40.5 11.1 0 17.2 5 20 14.5H901C898.3 97.7 886.2 86 866.9 86c-29.7 0-43.2 27.5-43.2 62.2 0 8.6.8 16.1 2.2 22.5h14.7c-.3-1.7-.4-3.4-.4-5.3 0-16.1 10.9-25 24.7-25 14 0 24.9 8.5 24.9 25.2 0 1.8-.1 3.5-.4 5.1h14.3c.2-1.9.3-3.8.3-5.7.1-21.8-15.6-37.1-36.4-37.1z"/>
      <path d="M979.1 39.8c0 12.2-10.9 18.9-23.7 18.9-12.8 0-23.7-6.7-23.7-18.9 0-7.5 4.1-12.8 10.3-15.8h-19.9c-2.8 4.4-4.4 9.5-4.4 15.2 0 13.2 8.5 21.3 14.5 24.1v3.3c-7.6 2.8-17.9 12-17.9 27.3 0 18.9 16.1 33.2 41.1 33.2s41.1-14.3 41.1-33.2c0-15.3-10.4-24.5-17.9-27.3v-3.3c5.9-2.8 14.5-11.2 14.5-24.1 0-5.7-1.6-10.8-4.4-15.2h-19.9c6.2 3 10.3 8.3 10.3 15.8zm3.3 52.7c0 13.2-10.4 21.8-27 21.8s-27-8.6-27-21.8c0-13.3 10.4-21.5 27-21.5s27 8.2 27 21.5zm-92.6-52c0 16.9-10.6 25.8-24.5 25.8-14 0-25-9.4-25-26 0-6.7 1.9-12.2 5.1-16.3h-21.7c.3 40.3 17.7 55 41.8 55 24.2 0 38.7-17.4 38.7-39.2 0-5.8-1.1-11.1-3.2-15.8h-16.2c3.2 4.1 5 9.6 5 16.5z" style="fill:#94a6ff"/>
    </g>
</svg>
